HIERARCHY
ROOT Character1_Hips
{
  OFFSET 21.7621 96.3201 23.3137
  CHANNELS 6 Xposition Yposition Zposition Zrotation Xrotation Yrotation
  JOINT Character1_Spine
  {
    OFFSET 0 8.754 -1.339
    CHANNELS 3 Zrotation Xrotation Yrotation
    JOINT Character1_Spine1
    {
      OFFSET 0 10.855 -0.645
      CHANNELS 3 Zrotation Xrotation Yrotation
      JOINT Character1_LeftShoulder
      {
        OFFSET 1.467 27.745 1.178
        CHANNELS 3 Zrotation Xrotation Yrotation
        JOINT Character1_LeftArm
        {
          OFFSET 18.486 -1.858 0.275
          CHANNELS 3 Zrotation Xrotation Yrotation
          JOINT Character1_LeftForeArm
          {
            OFFSET 32.391 -1.079 3.409
            CHANNELS 3 Zrotation Xrotation Yrotation
            JOINT Character1_LeftHand
            {
              OFFSET 28.678 -2.281 2.112
              CHANNELS 3 Zrotation Xrotation Yrotation
              End Site
              {
                OFFSET -0.000241878 -0.00028536 -9.11487e-005
              }
            }
            JOINT L_Radius
            {
              OFFSET -8.94447e-005 -0.392541 -0.0893675
              CHANNELS 3 Zrotation Xrotation Yrotation
              End Site
              {
                OFFSET 0 0 0
              }
            }
          }
          JOINT L_Humerus
          {
            OFFSET 42.9881 15.7281 -23.1008
            CHANNELS 3 Zrotation Xrotation Yrotation
            End Site
            {
              OFFSET 0 0 0
            }
          }
        }
        JOINT L_Shoulder
        {
          OFFSET 3.24498e-005 -0.000608592 -0.000527677
          CHANNELS 3 Zrotation Xrotation Yrotation
          End Site
          {
            OFFSET 0 0 0
          }
        }
      }
      JOINT Character1_RightShoulder
      {
        OFFSET -1.467 27.745 1.178
        CHANNELS 3 Zrotation Xrotation Yrotation
        JOINT Character1_RightArm
        {
          OFFSET -18.486 -1.858 0.275
          CHANNELS 3 Zrotation Xrotation Yrotation
          JOINT Character1_RightForeArm
          {
            OFFSET -32.391 -1.079 3.409
            CHANNELS 3 Zrotation Xrotation Yrotation
            JOINT Character1_RightHand
            {
              OFFSET -28.678 -2.281 2.112
              CHANNELS 3 Zrotation Xrotation Yrotation
              End Site
              {
                OFFSET 0.000589556 -0.000254961 0.000258925
              }
            }
            JOINT R_Radius
            {
              OFFSET 0.000437123 -0.392512 -0.0890171
              CHANNELS 3 Zrotation Xrotation Yrotation
              End Site
              {
                OFFSET 0 0 0
              }
            }
          }
          JOINT R_Humerus
          {
            OFFSET -42.9874 15.7281 -23.1005
            CHANNELS 3 Zrotation Xrotation Yrotation
            End Site
            {
              OFFSET 0 0 0
            }
          }
        }
        JOINT R_Shoulder
        {
          OFFSET -3.24498e-005 -0.000608592 -0.000527677
          CHANNELS 3 Zrotation Xrotation Yrotation
          End Site
          {
            OFFSET 0 0 0
          }
        }
      }
      JOINT Character1_Neck
      {
        OFFSET 0 30.836 0.626
        CHANNELS 3 Zrotation Xrotation Yrotation
        JOINT Character1_Head
        {
          OFFSET 0 8.074 3.498
          CHANNELS 3 Zrotation Xrotation Yrotation
          End Site
          {
            OFFSET 0 -0.00153379 1.54668e-005
          }
        }
        JOINT Neck
        {
          OFFSET 0 -0.00129288 7.21346e-005
          CHANNELS 3 Zrotation Xrotation Yrotation
          End Site
          {
            OFFSET 0 0 0
          }
        }
      }
      JOINT Torso
      {
        OFFSET 0 -0.000828813 -0.000380861
        CHANNELS 3 Zrotation Xrotation Yrotation
        End Site
        {
          OFFSET 0 0 0
        }
      }
    }
    JOINT Spine
    {
      OFFSET 0 -0.000399752 -0.000169496
      CHANNELS 3 Zrotation Xrotation Yrotation
      End Site
      {
        OFFSET 0 0 0
      }
    }
  }
  JOINT Character1_RightUpLeg
  {
    OFFSET -9.035 -4.63425 1.845
    CHANNELS 3 Zrotation Xrotation Yrotation
    JOINT Character1_RightLeg
    {
      OFFSET -0.919521 -40.345 1.155
      CHANNELS 3 Zrotation Xrotation Yrotation
      JOINT Character1_RightFoot
      {
        OFFSET 1.95452 -45.2655 -4.18888
        CHANNELS 3 Zrotation Xrotation Yrotation
        JOINT Character1_RightToeBase
        {
          OFFSET 1.87056 -6.69517 14.7145
          CHANNELS 3 Zrotation Xrotation Yrotation
          End Site
          {
            OFFSET 0 0 0
          }
        }
        JOINT R_Foot
        {
          OFFSET 8 -7.75529 4.18888
          CHANNELS 3 Zrotation Xrotation Yrotation
          End Site
          {
            OFFSET 0 0 0
          }
        }
      }
      JOINT R_Tibia
      {
        OFFSET 0 0 0
        CHANNELS 3 Zrotation Xrotation Yrotation
        End Site
        {
          OFFSET 0 0 0
        }
      }
    }
    JOINT R_Femur
    {
      OFFSET 0 0 0
      CHANNELS 3 Zrotation Xrotation Yrotation
      End Site
      {
        OFFSET 0 0 0
      }
    }
  }
  JOINT Character1_LeftUpLeg
  {
    OFFSET 9.035 -4.63425 1.845
    CHANNELS 3 Zrotation Xrotation Yrotation
    JOINT Character1_LeftLeg
    {
      OFFSET 0.919521 -40.345 1.155
      CHANNELS 3 Zrotation Xrotation Yrotation
      JOINT Character1_LeftFoot
      {
        OFFSET -1.95452 -45.2655 -4.18888
        CHANNELS 3 Zrotation Xrotation Yrotation
        JOINT Character1_LeftToeBase
        {
          OFFSET -1.87056 -6.69517 14.7145
          CHANNELS 3 Zrotation Xrotation Yrotation
          End Site
          {
            OFFSET 0 0 0
          }
        }
        JOINT L_Foot
        {
          OFFSET -8 -7.75529 4.18888
          CHANNELS 3 Zrotation Xrotation Yrotation
          End Site
          {
            OFFSET 0 0 0
          }
        }
      }
      JOINT L_Tibia
      {
        OFFSET 0 0 0
        CHANNELS 3 Zrotation Xrotation Yrotation
        End Site
        {
          OFFSET 0 0 0
        }
      }
    }
    JOINT L_Femur
    {
      OFFSET 0 0 0
      CHANNELS 3 Zrotation Xrotation Yrotation
      End Site
      {
        OFFSET 0 0 0
      }
    }
  }
  JOINT Pelvis
  {
    OFFSET 0 0 0
    CHANNELS 3 Zrotation Xrotation Yrotation
    End Site
    {
      OFFSET 0 0 0
    }
  }
}
MOTION
Frames:	11
Frame Time:	0.00833333
21.9665 95.4187 21.6909 1.65818 21.1588 -8.39032 3.97569e-016 6.36111e-015 -0 6.53103 -33.6099 1.62866 -4.41391e-032 1.59028e-015 1.59028e-015 45.5358 -27.2779 -7.81155 13.2565 -6.36981 -24.0697 0.834614 -25.0179 3.76068 -2.67482e-015 20 8.46169e-016 83 3.97569e-015 -85 -3.97569e-016 1.59028e-015 1.59028e-015 -4.41391e-032 1.59028e-015 1.59028e-015 -31.82 -19.1514 -23.2601 -24.1794 -49.1629 102.713 -7.42967 -58.4597 -13.237 -4.33818e-015 20 3.38468e-015 -83 -3.18055e-015 85 -3.97569e-016 1.59028e-015 1.59028e-015 -4.41391e-032 1.59028e-015 1.59028e-015 23.9039 2.9944 52.8256 3.26449 3.69624 4.98926 -4.41391e-032 1.59028e-015 1.59028e-015 2.2456 -6.92413 0.74711 -20.0309 2.30952 4.23493 0.00459934 1.0265 0.0539324 -8.17567 -14.7154 -25.5061 -0.357358 42.5459 0.917917 -1.98785e-015 1.59028e-015 -3.18055e-015 -3.97569e-016 6.36111e-015 -1.98785e-015 4.17448e-015 3.18055e-015 7.95139e-016 -5.36538 -29.3731 -1.63613 0.259606 23.8452 -0.453302 2.14903 -13.5827 6.19859 2.84152 7.69848 -0.612748 -3.23025e-016 0 -7.95139e-016 7.95139e-016 3.18055e-015 3.18055e-015 3.97569e-016 0 -1.59028e-015 3.97569e-016 6.36111e-015 -0 
21.9847 95.4164 21.6794 1.90327 21.2443 -8.57841 -3.97569e-016 -3.18055e-015 -1.59028e-015 6.31724 -33.7504 1.71275 -7.95139e-016 -1.59028e-015 -3.18055e-015 45.6739 -27.2333 -7.72638 13.2615 -6.37364 -24.0797 0.844293 -25.1507 3.78347 -2.60174e-015 20 -1.69234e-015 83 -1.59028e-015 -85 -1.59028e-015 -1.59028e-015 -1.59028e-015 -7.95139e-016 -1.59028e-015 -3.18055e-015 -31.8187 -19.168 -23.2575 -24.1874 -49.1522 102.687 -7.41445 -58.4258 -13.2192 -7.81106e-015 20 1.35387e-014 -83 6.36111e-015 85 -1.59028e-015 -1.59028e-015 -1.59028e-015 -7.95139e-016 -1.59028e-015 -3.18055e-015 23.838 2.97555 52.7885 6.01342 7.513 10.3328 -7.95139e-016 -1.59028e-015 -3.18055e-015 4.81774 -14.2402 1.57634 -20.2864 2.18829 4.28876 0.00487322 0.959606 0.0564261 -8.10971 -15.7191 -24.0741 -0.389703 43.9801 0.96514 1.59028e-015 0 3.18055e-015 -1.98785e-015 0 7.95139e-016 -5.96354e-015 3.18055e-015 -1.98785e-015 -5.54005 -29.4522 -1.4787 0.257981 23.7893 -0.452097 2.15679 -13.7311 6.17849 2.44299 7.89397 -0.548583 4.47266e-016 1.19271e-015 -0 -1.19271e-015 -3.18055e-015 -1.59028e-015 9.93923e-016 -1.59028e-015 -1.59028e-015 -3.97569e-016 -3.18055e-015 -1.59028e-015 
21.9852 95.4135 21.6418 2.0491 21.5694 -8.95749 3.97569e-016 3.18055e-015 1.59028e-015 6.41802 -34.0664 2.17056 0 0 -0 45.6898 -27.4207 -7.74668 13.2413 -6.35831 -24.0398 0.833281 -24.9996 3.75752 2.89407e-016 20 -8.46169e-016 83 3.97569e-015 -85 -3.97569e-016 0 -0 0 0 -0 -31.8627 -19.1239 -23.3021 -24.199 -49.1366 102.649 -7.37762 -58.3435 -13.1759 -7.51874e-015 20 3.38468e-015 -83 0 85 -3.97569e-016 0 -0 0 0 -0 23.8208 2.81809 52.7548 7.85773 10.7501 15.2098 0 0 -0 7.31035 -20.7578 2.37952 -20.3979 1.68206 4.47492 0.00499883 0.938401 0.0571752 -8.13151 -16.195 -23.5935 -0.405647 44.6449 0.987892 -2.38542e-015 0 -3.18055e-015 -0 0 3.97569e-016 -3.18055e-015 3.18055e-015 -3.97569e-016 -5.55563 -29.8628 -1.42955 0.257888 23.8531 -0.451822 2.21664 -13.6069 6.42729 2.59396 7.56451 -0.557303 -6.58474e-016 0 3.97569e-016 -7.95139e-016 3.18055e-015 1.59028e-015 9.93923e-016 1.59028e-015 -0 3.97569e-016 3.18055e-015 1.59028e-015 
21.9776 95.4078 21.6662 1.85294 21.3391 -8.54925 -3.97569e-016 0 -0 6.28145 -33.8939 1.74729 3.97569e-016 1.59028e-015 3.18055e-015 45.6254 -27.6414 -7.82886 13.2147 -6.33797 -23.9871 0.81853 -24.7948 3.72248 4.3265e-016 20 3.38468e-015 83 -2.38542e-015 -85 -7.95139e-016 1.59028e-015 1.59028e-015 3.97569e-016 1.59028e-015 3.18055e-015 -31.8901 -19.1148 -23.2997 -24.2094 -49.1227 102.615 -7.35406 -58.278 -13.1482 -4.33818e-015 20 3.38468e-015 -83 3.18055e-015 85 -7.95139e-016 1.59028e-015 1.59028e-015 3.97569e-016 1.59028e-015 3.18055e-015 23.7799 2.86682 52.648 8.81102 12.8616 18.6886 3.97569e-016 1.59028e-015 3.18055e-015 9.18565 -25.2929 2.98564 -20.2137 2.24 4.24973 0.0051994 0.857591 0.0572759 -8.2416 -17.5391 -22.4611 -0.45022 46.4027 1.05042 3.97569e-015 -1.59028e-015 3.18055e-015 3.57812e-015 3.18055e-015 1.98785e-015 -5.56597e-015 0 -3.97569e-016 -5.49345 -29.6017 -1.54644 0.257788 23.9154 -0.451545 2.15277 -13.6089 6.21039 2.67102 7.41468 -0.562494 3.23025e-016 0 3.97569e-016 -1.59028e-015 -3.18055e-015 -1.59028e-015 1.98785e-016 -1.59028e-015 -3.18055e-015 -3.97569e-016 0 -0 
21.9682 95.4019 21.6748 1.71964 21.2443 -8.36685 -7.95139e-016 -3.18055e-015 -0 6.24349 -33.8631 1.51512 -1.19271e-015 0 1.59028e-015 45.6419 -27.6571 -7.82551 13.215 -6.33812 -23.9877 0.820853 -24.8269 3.72795 -1.87968e-015 20 8.46169e-016 83 6.36111e-015 -85 1.19271e-015 1.59028e-015 -0 -1.19271e-015 0 1.59028e-015 -31.9068 -19.2508 -23.2047 -24.24 -49.0821 102.517 -7.36948 -58.3166 -13.1636 -6.65344e-015 20 1.0154e-014 -83 -6.36111e-015 85 1.19271e-015 1.59028e-015 -0 -1.19271e-015 0 1.59028e-015 23.6603 2.872 52.5455 9.12494 13.6223 20.0586 -1.19271e-015 0 1.59028e-015 9.99508 -27.0593 3.19838 -20.0736 2.50676 4.16334 0.00539141 0.79618 0.056914 -8.27496 -18.668 -21.4762 -0.487623 47.7599 1.10147 1.98785e-015 2.38542e-015 -3.18055e-015 2.98177e-015 0 1.59028e-015 5.56597e-015 3.18055e-015 3.57812e-015 -5.37881 -29.5197 -1.48163 0.257946 24.007 -0.451375 2.114 -13.7543 6.03099 2.52789 7.6351 -0.549976 -9.56651e-016 -3.97569e-016 -3.97569e-016 3.97569e-016 -3.18055e-015 -0 1.59028e-015 -1.59028e-015 -1.59028e-015 -7.95139e-016 -3.18055e-015 -0 
21.9675 95.4005 21.7089 1.70615 21.2315 -8.34097 -3.97569e-016 6.36111e-015 -7.95139e-016 6.15149 -33.8164 1.4022 7.95139e-016 4.77083e-015 1.59028e-015 45.8089 -27.5029 -7.66875 13.241 -6.35806 -24.0392 0.835223 -25.0259 3.76206 -2.16909e-015 20 1.69234e-015 83 -2.38542e-015 -85 1.19271e-015 4.77083e-015 1.59028e-015 7.95139e-016 4.77083e-015 1.59028e-015 -31.922 -19.4043 -23.1641 -24.2674 -49.0452 102.428 -7.36956 -58.3254 -13.1665 3.18055e-015 20 -0 -83 -3.18055e-015 85 1.19271e-015 4.77083e-015 1.59028e-015 7.95139e-016 4.77083e-015 1.59028e-015 23.5902 2.75724 52.6286 9.11916 13.4838 19.8822 7.95139e-016 4.77083e-015 1.59028e-015 9.98826 -26.8514 3.09933 -20.0504 2.54907 4.14857 0.00551679 0.809384 0.0562746 -8.28261 -18.6373 -21.5288 -0.483857 47.6251 1.09629 -4.57205e-015 0 -0 2.18663e-015 0 1.19271e-015 -1.39149e-015 0 1.19271e-015 -5.3426 -29.5087 -1.31906 0.257883 24.072 -0.451117 2.09096 -13.9026 5.90439 2.29166 7.78954 -0.514243 -3.85145e-016 0 3.97569e-016 3.97569e-016 6.36111e-015 -0 -1.39149e-015 0 -7.95139e-016 -3.97569e-016 6.36111e-015 -7.95139e-016 
21.9628 95.4013 21.7492 1.62719 21.271 -8.26349 -7.95139e-016 -3.18055e-015 1.59028e-015 6.11716 -33.7758 1.32898 -0 -3.18055e-015 -0 46.0063 -27.2251 -7.52829 13.277 -6.38557 -24.1104 0.862279 -25.3954 3.82559 -1.30087e-015 20 -8.46169e-016 83 -2.38542e-015 -85 -0 -3.18055e-015 -0 -0 -3.18055e-015 -0 -31.9436 -19.3181 -23.2914 -24.2493 -49.0691 102.486 -7.35535 -58.2934 -13.1497 -6.36111e-015 20 -0 -83 3.18055e-015 85 -0 -3.18055e-015 -0 -0 -3.18055e-015 -0 23.6284 2.62646 52.6744 8.977 12.9882 19.0892 -0 -3.18055e-015 -0 9.63884 -25.8599 2.90135 -19.9604 2.54465 4.09266 0.0056177 0.853185 0.0555415 -8.26008 -18.1381 -21.9426 -0.464307 46.9261 1.06979 -1.98785e-015 0 3.18055e-015 -4.41391e-032 3.18055e-015 7.95139e-016 5.96354e-015 0 -1.59028e-015 -5.2786 -29.536 -1.29709 0.257562 24.106 -0.450754 2.0751 -13.9439 5.83535 2.279 7.85057 -0.515245 -6.58474e-016 3.97569e-016 -7.95139e-016 -7.95139e-016 -6.36111e-015 7.95139e-016 0 0 -1.59028e-015 -7.95139e-016 -3.18055e-015 1.59028e-015 
21.9612 95.4002 21.7682 1.5873 21.2479 -8.1874 -3.97569e-016 0 1.59028e-015 6.0403 -33.7566 1.28714 3.97569e-016 4.77083e-015 -0 46.0218 -27.3012 -7.59296 13.2692 -6.3796 -24.095 0.861252 -25.3816 3.82323 1.37395e-015 20 -1.69234e-015 83 -7.95139e-016 -85 -8.82781e-032 3.18055e-015 1.59028e-015 3.97569e-016 4.77083e-015 -0 -31.9799 -19.0609 -23.4535 -24.2239 -49.1034 102.568 -7.27959 -58.1221 -13.0606 0 20 -0 -83 3.18055e-015 85 -8.82781e-032 3.18055e-015 1.59028e-015 3.97569e-016 4.77083e-015 -0 23.6665 2.45171 52.5019 8.87978 12.6757 18.6098 3.97569e-016 4.77083e-015 -0 9.41569 -25.2763 2.81549 -19.9235 2.63182 4.04477 0.00576129 0.855562 0.0548979 -8.23818 -18.2236 -21.8099 -0.466732 47.0113 1.07303 1.19271e-015 0 -1.59028e-015 3.77691e-015 3.18055e-015 1.19271e-015 1.98785e-015 0 7.95139e-016 -5.2643 -29.5255 -1.33433 0.257325 24.1484 -0.450424 2.06487 -13.9826 5.78307 2.24507 8.09078 -0.524027 7.82715e-016 0 3.97569e-016 -0 0 1.59028e-015 3.97569e-016 1.59028e-015 7.95139e-016 -3.97569e-016 0 1.59028e-015 
21.9627 95.4028 21.7911 1.5621 21.2405 -8.11061 0 0 -0 5.91139 -33.7868 1.21055 0 0 -0 45.8645 -27.9701 -7.78242 13.2138 -6.33714 -23.9852 0.814631 -24.7402 3.71316 7.95139e-016 20 -0 83 -3.97569e-015 -85 0 0 -0 0 0 -0 -31.9588 -18.9218 -23.5344 -24.2184 -49.1107 102.586 -7.18328 -57.9011 -12.9471 -5.49581e-015 20 6.76935e-015 -83 3.18055e-015 85 0 0 -0 0 0 -0 23.7098 2.395 52.4257 8.86679 12.641 18.5913 0 0 -0 9.36938 -25.3149 2.90524 -19.8944 2.64821 3.98459 0.00585083 0.913564 0.0545297 -8.16215 -17.4255 -22.3953 -0.438691 45.9608 1.03431 -2.38542e-015 0 3.18055e-015 5.96354e-016 -6.36111e-015 7.95139e-016 9.93923e-016 0 7.95139e-016 -5.24816 -29.5034 -1.2497 0.256797 24.1556 -0.449976 2.02094 -14.0458 5.61758 2.19155 8.45383 -0.531636 -3.72721e-016 3.97569e-016 3.97569e-016 8.82781e-032 -3.18055e-015 1.59028e-015 2.5842e-015 1.59028e-015 7.95139e-016 0 0 -0 
21.9684 95.4098 21.8082 1.61283 21.2582 -8.1623 -3.97569e-016 0 -0 5.81538 -33.87 1.26836 -7.95139e-016 0 -1.59028e-015 45.8268 -28.0906 -7.8621 13.2253 -6.34597 -24.008 0.813576 -24.7256 3.71062 1.01146e-015 20 1.69234e-015 83 -4.77083e-015 -85 -7.95139e-016 -1.59028e-015 -0 -7.95139e-016 0 -1.59028e-015 -31.9854 -18.8832 -23.6271 -24.2056 -49.1278 102.628 -7.2174 -57.9798 -12.9873 3.18055e-015 20 -0 -83 0 85 -7.95139e-016 -1.59028e-015 -0 -7.95139e-016 0 -1.59028e-015 23.7219 2.48706 52.4224 8.84018 12.6102 18.5723 -7.95139e-016 0 -1.59028e-015 9.27642 -25.3744 3.05668 -19.9328 2.52958 4.00685 0.00588636 1.02364 0.0546214 -7.90303 -15.6592 -23.6065 -0.377259 43.4393 0.947138 -3.57812e-015 -1.59028e-015 -0 6.16232e-015 3.18055e-015 -1.98785e-015 2.98177e-015 0 1.98785e-015 -5.26744 -29.4792 -1.12192 0.255686 24.093 -0.449288 2.00063 -14.0519 5.54392 2.15769 8.4941 -0.527177 6.4605e-016 -3.97569e-016 3.97569e-016 -1.19271e-015 -3.18055e-015 7.95139e-016 2.08724e-015 0 7.95139e-016 -3.97569e-016 0 -0 
21.9776 95.4127 21.7915 1.79976 21.296 -8.44644 -7.95139e-016 3.18055e-015 -0 5.78501 -33.9679 1.55222 -3.97569e-016 1.59028e-015 -1.59028e-015 45.9467 -27.5605 -7.77595 13.2923 -6.39736 -24.141 0.859927 -25.3637 3.82015 -3.10747e-015 20 -2.53851e-015 83 2.38542e-015 -85 -3.97569e-016 0 -1.59028e-015 -3.97569e-016 1.59028e-015 -1.59028e-015 -32.0924 -18.8907 -23.7066 -24.1854 -49.1546 102.693 -7.32784 -58.2314 -13.1174 7.51874e-015 20 -3.38468e-015 -83 3.18055e-015 85 -3.97569e-016 0 -1.59028e-015 -3.97569e-016 1.59028e-015 -1.59028e-015 23.7029 2.65214 52.3158 8.81166 12.5893 18.5591 -3.97569e-016 1.59028e-015 -1.59028e-015 9.17736 -25.4245 3.20495 -20.1075 2.34288 4.18834 0.00601232 1.03257 0.0551659 -7.83925 -15.2648 -23.8841 -0.362647 42.7867 0.925757 2.38542e-015 -1.59028e-015 -6.36111e-015 2.98177e-015 -3.18055e-015 -0 -3.77691e-015 -3.18055e-015 3.97569e-016 -5.38897 -29.518 -1.12477 0.254509 24.0205 -0.448572 2.06068 -13.8205 5.81974 2.34391 7.51748 -0.508409 1.26725e-015 0 3.97569e-016 -0 -6.36111e-015 -0 -1.49089e-015 -3.18055e-015 7.95139e-016 -7.95139e-016 3.18055e-015 -0 
